<mxfile host="Electron" modified="2023-11-14T15:18:20.506Z" agent="Mozilla/5.0 (Windows NT 10.0; Win64; x64) AppleWebKit/537.36 (KHTML, like Gecko) draw.io/22.0.2 Chrome/114.0.5735.289 Electron/25.8.4 Safari/537.36" etag="sCxKZYWzVTFQPlHmd2wn" version="22.0.2" type="device">
  <diagram name="Página-1" id="5j-ww4zHZG7wsbymvLwp">
    <mxGraphModel dx="880" dy="532" grid="1" gridSize="10" guides="1" tooltips="1" connect="1" arrows="1" fold="1" page="1" pageScale="1" pageWidth="827" pageHeight="1169" math="0" shadow="0">
      <root>
        <mxCell id="0" />
        <mxCell id="1" parent="0" />
        <mxCell id="kYT57yn9HTB8OajrBAQV-72" value="" style="rounded=0;whiteSpace=wrap;html=1;strokeColor=default;fontFamily=Helvetica;fontSize=12;fontColor=default;fillColor=default;sketch=1;curveFitting=1;jiggle=2;" parent="1" vertex="1">
          <mxGeometry x="47" y="149" width="750" height="491" as="geometry" />
        </mxCell>
        <mxCell id="kYT57yn9HTB8OajrBAQV-35" value="" style="group;sketch=1;curveFitting=1;jiggle=2;" parent="1" vertex="1" connectable="0">
          <mxGeometry x="70" y="179" width="704" height="440" as="geometry" />
        </mxCell>
        <mxCell id="kYT57yn9HTB8OajrBAQV-29" value="" style="rounded=0;whiteSpace=wrap;html=1;strokeColor=default;fontFamily=Helvetica;fontSize=12;fontColor=default;fillColor=default;sketch=1;curveFitting=1;jiggle=2;" parent="kYT57yn9HTB8OajrBAQV-35" vertex="1">
          <mxGeometry width="704" height="410" as="geometry" />
        </mxCell>
        <mxCell id="kYT57yn9HTB8OajrBAQV-30" value="" style="whiteSpace=wrap;html=1;aspect=fixed;rounded=0;shadow=0;glass=0;fillColor=#dae8fc;strokeColor=#6c8ebf;sketch=1;curveFitting=1;jiggle=2;" parent="kYT57yn9HTB8OajrBAQV-35" vertex="1">
          <mxGeometry x="19.555555555555554" y="20" width="224.88888888888889" height="224.88888888888889" as="geometry" />
        </mxCell>
        <mxCell id="kYT57yn9HTB8OajrBAQV-31" value="" style="endArrow=none;html=1;rounded=0;fontFamily=Helvetica;fontSize=12;fontColor=default;entryX=1;entryY=0;entryDx=0;entryDy=0;exitX=0;exitY=1;exitDx=0;exitDy=0;movable=1;resizable=1;rotatable=1;deletable=1;editable=1;locked=0;connectable=1;sketch=1;curveFitting=1;jiggle=2;" parent="kYT57yn9HTB8OajrBAQV-35" source="kYT57yn9HTB8OajrBAQV-30" target="kYT57yn9HTB8OajrBAQV-30" edge="1">
          <mxGeometry width="50" height="50" relative="1" as="geometry">
            <mxPoint x="670.4761904761904" y="170" as="sourcePoint" />
            <mxPoint x="838.0952380952381" y="120" as="targetPoint" />
          </mxGeometry>
        </mxCell>
        <mxCell id="kYT57yn9HTB8OajrBAQV-32" value="" style="endArrow=none;html=1;rounded=0;fontFamily=Helvetica;fontSize=12;fontColor=default;entryX=0;entryY=0;entryDx=0;entryDy=0;exitX=1;exitY=1;exitDx=0;exitDy=0;movable=1;resizable=1;rotatable=1;deletable=1;editable=1;locked=0;connectable=1;sketch=1;curveFitting=1;jiggle=2;" parent="kYT57yn9HTB8OajrBAQV-35" source="kYT57yn9HTB8OajrBAQV-30" target="kYT57yn9HTB8OajrBAQV-30" edge="1">
          <mxGeometry width="50" height="50" relative="1" as="geometry">
            <mxPoint x="549.790476190476" y="120" as="sourcePoint" />
            <mxPoint x="885.0285714285714" y="20" as="targetPoint" />
          </mxGeometry>
        </mxCell>
        <mxCell id="--n3KMZkCAUNKXbKMZOb-1" value="&lt;font style=&quot;font-size: 24px;&quot;&gt;&lt;b&gt;NOME&lt;/b&gt;&lt;/font&gt;" style="rounded=0;whiteSpace=wrap;html=1;align=center;sketch=1;curveFitting=1;jiggle=2;" parent="kYT57yn9HTB8OajrBAQV-35" vertex="1">
          <mxGeometry x="273.77777777777777" y="20" width="413.4631111111111" height="30" as="geometry" />
        </mxCell>
        <mxCell id="--n3KMZkCAUNKXbKMZOb-2" value="&lt;span style=&quot;font-size: 24px;&quot;&gt;&lt;b&gt;DESCRIÇÃO&lt;/b&gt;&lt;/span&gt;" style="rounded=0;whiteSpace=wrap;html=1;align=center;sketch=1;curveFitting=1;jiggle=2;" parent="kYT57yn9HTB8OajrBAQV-35" vertex="1">
          <mxGeometry x="273.77777777777777" y="60" width="413.4631111111111" height="140" as="geometry" />
        </mxCell>
        <mxCell id="--n3KMZkCAUNKXbKMZOb-3" value="&lt;span style=&quot;font-size: 24px;&quot;&gt;&lt;b&gt;PREÇO R$&lt;/b&gt;&lt;/span&gt;" style="rounded=0;whiteSpace=wrap;html=1;align=center;sketch=1;curveFitting=1;jiggle=2;" parent="kYT57yn9HTB8OajrBAQV-35" vertex="1">
          <mxGeometry x="273.77777777777777" y="220" width="413.4631111111111" height="30" as="geometry" />
        </mxCell>
        <mxCell id="kYT57yn9HTB8OajrBAQV-83" value="&lt;font color=&quot;#000000&quot;&gt;&lt;span style=&quot;font-size: 24px;&quot;&gt;&lt;b&gt;SALVAR&lt;/b&gt;&lt;/span&gt;&lt;/font&gt;" style="rounded=1;html=1;shadow=0;dashed=0;whiteSpace=wrap;fontSize=10;fillColor=#d5e8d4;align=center;strokeColor=#82b366;fontFamily=Helvetica;sketch=1;curveFitting=1;jiggle=2;" parent="kYT57yn9HTB8OajrBAQV-35" vertex="1">
          <mxGeometry x="273.77777777777777" y="331" width="195.55555555555554" height="50" as="geometry" />
        </mxCell>
        <mxCell id="kYT57yn9HTB8OajrBAQV-84" value="&lt;font color=&quot;#000000&quot;&gt;&lt;span style=&quot;font-size: 24px;&quot;&gt;&lt;b&gt;CANCELAR&lt;/b&gt;&lt;/span&gt;&lt;/font&gt;" style="rounded=1;html=1;shadow=0;dashed=0;whiteSpace=wrap;fontSize=10;fillColor=#f8cecc;align=center;strokeColor=#b85450;fontFamily=Helvetica;sketch=1;curveFitting=1;jiggle=2;" parent="kYT57yn9HTB8OajrBAQV-35" vertex="1">
          <mxGeometry x="488.88888888888886" y="331" width="198.352" height="50" as="geometry" />
        </mxCell>
        <mxCell id="HGCWDRCyfKGlyAv5OE9Z-1" value="&lt;span style=&quot;font-size: 24px;&quot;&gt;&lt;b&gt;QUANTIDADE&lt;/b&gt;&lt;/span&gt;" style="rounded=0;whiteSpace=wrap;html=1;align=center;sketch=1;curveFitting=1;jiggle=2;" parent="kYT57yn9HTB8OajrBAQV-35" vertex="1">
          <mxGeometry x="273.77777777777777" y="271" width="413.4631111111111" height="30" as="geometry" />
        </mxCell>
        <mxCell id="47kjl0uHo-1rrkmUZWcS-1" value="&lt;span style=&quot;font-size: 24px;&quot;&gt;&lt;b&gt;FILE&lt;/b&gt;&lt;/span&gt;" style="rounded=1;html=1;shadow=0;dashed=0;whiteSpace=wrap;fontSize=10;fillColor=#d5e8d4;align=center;strokeColor=#82b366;fontFamily=Helvetica;sketch=1;curveFitting=1;jiggle=2;" vertex="1" parent="kYT57yn9HTB8OajrBAQV-35">
          <mxGeometry x="19.56" y="261" width="220.44" height="50" as="geometry" />
        </mxCell>
        <mxCell id="kYT57yn9HTB8OajrBAQV-87" value="&lt;font style=&quot;font-size: 24px;&quot;&gt;&lt;b&gt;Gerenciar produtos&lt;/b&gt;&lt;/font&gt;" style="text;html=1;align=center;verticalAlign=middle;resizable=0;points=[];autosize=1;strokeColor=#6c8ebf;fillColor=#dae8fc;fontSize=12;fontFamily=Helvetica;sketch=1;curveFitting=1;jiggle=2;" parent="1" vertex="1">
          <mxGeometry x="297" y="40" width="250" height="40" as="geometry" />
        </mxCell>
        <mxCell id="kYT57yn9HTB8OajrBAQV-88" value="&lt;font size=&quot;1&quot; style=&quot;&quot;&gt;&lt;b style=&quot;font-size: 24px;&quot;&gt;04/09/2023&lt;/b&gt;&lt;/font&gt;" style="text;html=1;align=center;verticalAlign=middle;resizable=0;points=[];autosize=1;strokeColor=#6c8ebf;fillColor=#dae8fc;fontSize=12;fontFamily=Helvetica;sketch=1;curveFitting=1;jiggle=2;" parent="1" vertex="1">
          <mxGeometry x="47" y="680" width="140" height="40" as="geometry" />
        </mxCell>
      </root>
    </mxGraphModel>
  </diagram>
</mxfile>
